<svg xmlns="http://www.w3.org/2000/svg" viewBox="0 0 900 380"><defs><linearGradient id="bg" x1="0" y1="0" x2="1" y2="1"><stop stop-color="#0c2442"/><stop offset="1" stop-color="#2f70d6"/></linearGradient><filter id="s" x="-20%" y="-20%" width="140%" height="140%"><feDropShadow dx="0" dy="14" stdDeviation="14" flood-color="#06152b" flood-opacity=".25"/></filter></defs><rect width="900" height="380" fill="url(#bg)"/><circle cx="770" cy="65" r="95" fill="#0bbf70" opacity=".15"/><rect x="112" y="43" width="676" height="294" rx="28" fill="#fff" filter="url(#s)"/><rect x="158" y="83" width="230" height="18" rx="9" fill="#17345a"/><rect x="158" y="137" width="178" height="114" rx="18" fill="#17345a"/><rect x="363" y="137" width="178" height="114" rx="18" fill="#eaf3ff"/><rect x="568" y="137" width="174" height="114" rx="18" fill="#e8fff2"/><path d="M336 194h27M541 194h27" stroke="#0bbf70" stroke-width="11" stroke-linecap="round"/><circle cx="247" cy="190" r="27" fill="#2f70d6"/><path d="M235 190h24M247 178v24" stroke="#fff" stroke-width="8" stroke-linecap="round"/><circle cx="452" cy="194" r="28" fill="#2f70d6"/><path d="M437 194h30M452 179v30" stroke="#fff" stroke-width="7" stroke-linecap="round"/><circle cx="655" cy="194" r="28" fill="#0bbf70"/><path d="M640 194h30M655 179v30" stroke="#fff" stroke-width="7" stroke-linecap="round"/><rect x="250" y="278" width="400" height="14" rx="7" fill="#dce8f5"/><rect x="250" y="278" width="245" height="14" rx="7" fill="#2f70d6"/></svg>
