<svg xmlns="http://www.w3.org/2000/svg" viewBox="0 0 900 520">
<defs><linearGradient id="g" x1="0" y1="0" x2="1" y2="1"><stop stop-color="#46683e"/><stop offset="1" stop-color="#b6cf91"/></linearGradient></defs>
<rect width="900" height="520" fill="url(#g)"/><circle cx="700" cy="105" r="55" fill="#f6e5a8"/><path d="M0 360C180 250 300 390 470 290S740 250 900 320V520H0z" fill="#5f874c"/><path d="M0 430C180 330 300 470 500 360S760 330 900 390V520H0z" fill="#7ea95c"/><g stroke="#d8e7b9" stroke-width="8" stroke-linecap="round"><path d="M170 390l25-95 25 95M235 405l25-95 25 95M610 420l25-100 25 100M680 410l25-95 25 95"/></g></svg>